<svg xmlns="http://www.w3.org/2000/svg" viewBox="0 0 800 500">
  <defs>
    <linearGradient id="bg" x1="0" y1="0" x2="1" y2="1">
      <stop offset="0%" stop-color="#1a3a5c"/>
      <stop offset="100%" stop-color="#2d6a4f"/>
    </linearGradient>
    <linearGradient id="card" x1="0" y1="0" x2="0" y2="1">
      <stop offset="0%" stop-color="#ffffff"/>
      <stop offset="100%" stop-color="#f0f4f0"/>
    </linearGradient>
  </defs>
  <rect width="800" height="500" fill="url(#bg)"/>
  <!-- Building silhouette -->
  <rect x="60" y="120" width="120" height="280" rx="4" fill="#ffffff" opacity="0.08"/>
  <rect x="80" y="140" width="20" height="20" rx="2" fill="#ffffff" opacity="0.12"/>
  <rect x="110" y="140" width="20" height="20" rx="2" fill="#ffffff" opacity="0.12"/>
  <rect x="140" y="140" width="20" height="20" rx="2" fill="#ffffff" opacity="0.12"/>
  <rect x="80" y="170" width="20" height="20" rx="2" fill="#ffffff" opacity="0.12"/>
  <rect x="110" y="170" width="20" height="20" rx="2" fill="#ffffff" opacity="0.12"/>
  <rect x="140" y="170" width="20" height="20" rx="2" fill="#ffffff" opacity="0.12"/>
  <rect x="80" y="200" width="20" height="20" rx="2" fill="#ffffff" opacity="0.12"/>
  <rect x="110" y="200" width="20" height="20" rx="2" fill="#ffffff" opacity="0.12"/>
  <rect x="140" y="200" width="20" height="20" rx="2" fill="#ffffff" opacity="0.12"/>
  <rect x="80" y="230" width="20" height="20" rx="2" fill="#ffffff" opacity="0.12"/>
  <rect x="110" y="230" width="20" height="20" rx="2" fill="#ffffff" opacity="0.12"/>
  <rect x="140" y="230" width="20" height="20" rx="2" fill="#ffffff" opacity="0.12"/>
  <rect x="80" y="260" width="20" height="20" rx="2" fill="#ffffff" opacity="0.12"/>
  <rect x="110" y="260" width="20" height="20" rx="2" fill="#ffffff" opacity="0.12"/>
  <rect x="140" y="260" width="20" height="20" rx="2" fill="#ffffff" opacity="0.12"/>
  <rect x="80" y="290" width="20" height="20" rx="2" fill="#ffffff" opacity="0.12"/>
  <rect x="110" y="290" width="20" height="20" rx="2" fill="#ffffff" opacity="0.12"/>
  <rect x="140" y="290" width="20" height="20" rx="2" fill="#ffffff" opacity="0.12"/>
  <rect x="80" y="320" width="20" height="20" rx="2" fill="#ffffff" opacity="0.12"/>
  <rect x="110" y="320" width="20" height="20" rx="2" fill="#ffffff" opacity="0.12"/>
  <rect x="140" y="320" width="20" height="20" rx="2" fill="#ffffff" opacity="0.12"/>
  <rect x="200" y="180" width="100" height="220" rx="4" fill="#ffffff" opacity="0.06"/>
  <rect x="220" y="200" width="16" height="16" rx="2" fill="#ffffff" opacity="0.10"/>
  <rect x="245" y="200" width="16" height="16" rx="2" fill="#ffffff" opacity="0.10"/>
  <rect x="270" y="200" width="16" height="16" rx="2" fill="#ffffff" opacity="0.10"/>
  <rect x="220" y="225" width="16" height="16" rx="2" fill="#ffffff" opacity="0.10"/>
  <rect x="245" y="225" width="16" height="16" rx="2" fill="#ffffff" opacity="0.10"/>
  <rect x="270" y="225" width="16" height="16" rx="2" fill="#ffffff" opacity="0.10"/>
  <rect x="220" y="250" width="16" height="16" rx="2" fill="#ffffff" opacity="0.10"/>
  <rect x="245" y="250" width="16" height="16" rx="2" fill="#ffffff" opacity="0.10"/>
  <rect x="270" y="250" width="16" height="16" rx="2" fill="#ffffff" opacity="0.10"/>
  <rect x="220" y="275" width="16" height="16" rx="2" fill="#ffffff" opacity="0.10"/>
  <rect x="245" y="275" width="16" height="16" rx="2" fill="#ffffff" opacity="0.10"/>
  <rect x="270" y="275" width="16" height="16" rx="2" fill="#ffffff" opacity="0.10"/>
  <rect x="220" y="300" width="16" height="16" rx="2" fill="#ffffff" opacity="0.10"/>
  <rect x="245" y="300" width="16" height="16" rx="2" fill="#ffffff" opacity="0.10"/>
  <rect x="270" y="300" width="16" height="16" rx="2" fill="#ffffff" opacity="0.10"/>
  <!-- Energy label -->
  <rect x="420" y="100" width="280" height="300" rx="16" fill="url(#card)" opacity="0.95"/>
  <rect x="440" y="120" width="240" height="30" rx="6" fill="#2d6a4f"/>
  <text x="560" y="142" font-family="Arial,sans-serif" font-size="16" fill="#ffffff" text-anchor="middle" font-weight="bold">ETIQUETA ENERGÉTICA</text>
  <!-- A-G bars -->
  <rect x="450" y="165" width="60" height="28" rx="4" fill="#00a651"/>
  <text x="480" y="184" font-family="Arial,sans-serif" font-size="14" fill="#ffffff" text-anchor="middle" font-weight="bold">A</text>
  <rect x="520" y="165" width="60" height="28" rx="4" fill="#89c743"/>
  <text x="550" y="184" font-family="Arial,sans-serif" font-size="14" fill="#ffffff" text-anchor="middle" font-weight="bold">B</text>
  <rect x="590" y="165" width="60" height="28" rx="4" fill="#c3d600"/>
  <text x="620" y="184" font-family="Arial,sans-serif" font-size="14" fill="#ffffff" text-anchor="middle" font-weight="bold">C</text>
  <rect x="450" y="200" width="60" height="28" rx="4" fill="#ffdd00"/>
  <text x="480" y="219" font-family="Arial,sans-serif" font-size="14" fill="#333333" text-anchor="middle" font-weight="bold">D</text>
  <rect x="520" y="200" width="60" height="28" rx="4" fill="#f7941d"/>
  <text x="550" y="219" font-family="Arial,sans-serif" font-size="14" fill="#ffffff" text-anchor="middle" font-weight="bold">E</text>
  <rect x="590" y="200" width="60" height="28" rx="4" fill="#ed1c24"/>
  <text x="620" y="219" font-family="Arial,sans-serif" font-size="14" fill="#ffffff" text-anchor="middle" font-weight="bold">F</text>
  <rect x="450" y="235" width="60" height="28" rx="4" fill="#9e1a1a"/>
  <text x="480" y="254" font-family="Arial,sans-serif" font-size="14" fill="#ffffff" text-anchor="middle" font-weight="bold">G</text>
  <!-- Arrow pointing to C -->
  <polygon points="445,179 435,172 435,186" fill="#2d6a4f"/>
  <text x="560" y="290" font-family="Arial,sans-serif" font-size="13" fill="#666666" text-anchor="middle">Clasificación eficiencia energética</text>
  <!-- Key icon -->
  <circle cx="560" cy="340" r="20" fill="#2d6a4f" opacity="0.15"/>
  <text x="560" y="347" font-family="Arial,sans-serif" font-size="20" fill="#2d6a4f" text-anchor="middle">🔑</text>
  <text x="560" y="378" font-family="Arial,sans-serif" font-size="12" fill="#999999" text-anchor="middle">Propiedades verificadas</text>
  <!-- Bottom text -->
  <text x="400" y="450" font-family="Arial,sans-serif" font-size="22" fill="#ffffff" text-anchor="middle" font-weight="bold">Certificado Energético para Inmobiliarias</text>
  <text x="400" y="478" font-family="Arial,sans-serif" font-size="14" fill="#a8c8b0" text-anchor="middle">Gestión de CEE para agencias inmobiliarias</text>
</svg>