
<svg xmlns="http://www.w3.org/2000/svg" width="800" height="450" viewBox="0 0 800 450">
  <defs>
    <linearGradient id="bg1" x1="0" y1="0" x2="1" y2="1">
      <stop offset="0%" stop-color="#e0f2e9"/>
      <stop offset="100%" stop-color="#bbf7d0"/>
    </linearGradient>
  </defs>
  <rect width="800" height="450" fill="url(#bg1)"/>
  <!-- Clipboard body -->
  <rect x="300" y="60" width="200" height="280" rx="12" fill="white" stroke="#547c24" stroke-width="2.5"/>
  <rect x="300" y="50" width="200" height="30" rx="8" fill="#547c24"/>
  <circle cx="400" cy="65" r="8" fill="white"/>
  <!-- Lines on clipboard -->
  <rect x="330" y="120" width="140" height="6" rx="3" fill="#d1d5db"/>
  <rect x="330" y="145" width="140" height="6" rx="3" fill="#d1d5db"/>
  <rect x="330" y="170" width="100" height="6" rx="3" fill="#d1d5db"/>
  <rect x="330" y="200" width="140" height="6" rx="3" fill="#d1d5db"/>
  <rect x="330" y="225" width="140" height="6" rx="3" fill="#d1d5db"/>
  <rect x="330" y="250" width="80" height="6" rx="3" fill="#d1d5db"/>
  <!-- Checkmark on clipboard -->
  <circle cx="370" cy="300" r="20" fill="#16a34a"/>
  <path d="M360 300 l7 7 l14 -14" fill="none" stroke="white" stroke-width="3" stroke-linecap="round" stroke-linejoin="round"/>
  <!-- Decorative dots -->
  <circle cx="120" cy="350" r="20" fill="#547c24" opacity="0.08"/>
  <circle cx="680" cy="100" r="30" fill="#547c24" opacity="0.06"/>
  <circle cx="680" cy="380" r="15" fill="#16a34a" opacity="0.1"/>
</svg>