<svg xmlns="http://www.w3.org/2000/svg" viewBox="0 0 800 380" font-family="Outfit, sans-serif">
  <defs>
    <linearGradient id="ga" x1="0" y1="0" x2="1" y2="0">
      <stop offset="0%" stop-color="#006837"/>
      <stop offset="100%" stop-color="#2b8c3f"/>
    </linearGradient>
    <linearGradient id="gb" x1="0" y1="0" x2="1" y2="0">
      <stop offset="0%" stop-color="#2b8c3f"/>
      <stop offset="100%" stop-color="#66bd63"/>
    </linearGradient>
    <linearGradient id="gc" x1="0" y1="0" x2="1" y2="0">
      <stop offset="0%" stop-color="#66bd63"/>
      <stop offset="100%" stop-color="#a6d96a"/>
    </linearGradient>
    <linearGradient id="gd" x1="0" y1="0" x2="1" y2="0">
      <stop offset="0%" stop-color="#a6d96a"/>
      <stop offset="100%" stop-color="#d9ef8b"/>
    </linearGradient>
    <linearGradient id="ge" x1="0" y1="0" x2="1" y2="0">
      <stop offset="0%" stop-color="#fee08b"/>
      <stop offset="100%" stop-color="#fdae61"/>
    </linearGradient>
    <linearGradient id="gf" x1="0" y1="0" x2="1" y2="0">
      <stop offset="0%" stop-color="#fdae61"/>
      <stop offset="100%" stop-color="#f46d43"/>
    </linearGradient>
    <linearGradient id="gg" x1="0" y1="0" x2="1" y2="0">
      <stop offset="0%" stop-color="#f46d43"/>
      <stop offset="100%" stop-color="#a50026"/>
    </linearGradient>
  </defs>
  <rect width="800" height="380" fill="#f7f9f6" rx="12"/>
  <text x="400" y="30" text-anchor="middle" font-size="16" font-weight="700" fill="#2d3a1f">Precio del certificado energético por tipo de vivienda</text>

  <!-- Vivienda tipo destacada -->
  <rect x="100" y="48" width="600" height="40" fill="#e8f5e9" rx="6"/>
  <text x="400" y="68" text-anchor="middle" font-size="14" fill="#2d3a1f" font-weight="700">★ VIVIENDA TIPO: 97 m² · 3 dormitorios · bloque años 70</text>
  <text x="400" y="83" text-anchor="middle" font-size="13" fill="#4a7c1e" font-weight="600">65 – 120 € según ciudad</text>

  <!-- Gráfico de barras horizontal por ciudad -->
  <text x="100" y="115" font-size="13" fill="#2d3a1f" font-weight="600">Precio CEE por ciudad (vivienda tipo 97 m²)</text>

  <text x="80" y="140" text-anchor="end" font-size="11" fill="#555">Barcelona</text>
  <rect x="85" y="130" width="115" height="14" fill="url(#gg)" rx="3"/>
  <text x="204" y="141" font-size="10" fill="#a50026" font-weight="600">90-130 €</text>

  <text x="80" y="162" text-anchor="end" font-size="11" fill="#555">Madrid</text>
  <rect x="85" y="152" width="105" height="14" fill="url(#gf)" rx="3"/>
  <text x="194" y="163" font-size="10" fill="#f46d43" font-weight="600">80-120 €</text>

  <text x="80" y="184" text-anchor="end" font-size="11" fill="#555">Palma</text>
  <rect x="85" y="174" width="105" height="14" fill="url(#gf)" rx="3"/>
  <text x="194" y="185" font-size="10" fill="#f46d43" font-weight="600">90-110 €</text>

  <text x="80" y="206" text-anchor="end" font-size="11" fill="#555">Bilbao</text>
  <rect x="85" y="196" width="95" height="14" fill="url(#ge)" rx="3"/>
  <text x="184" y="207" font-size="10" fill="#fdae61" font-weight="600">80-110 €</text>

  <text x="80" y="228" text-anchor="end" font-size="11" fill="#555">Málaga</text>
  <rect x="85" y="218" width="85" height="14" fill="url(#ed)" rx="3"/>
  <text x="174" y="229" font-size="10" fill="#d9ef8b" font-weight="600">75-100 €</text>

  <text x="80" y="250" text-anchor="end" font-size="11" fill="#555">Valencia</text>
  <rect x="85" y="240" width="80" height="14" fill="url(#dc)" rx="3"/>
  <text x="169" y="251" font-size="10" fill="#66bd63" font-weight="600">70-95 €</text>

  <text x="80" y="272" text-anchor="end" font-size="11" fill="#555">Sevilla</text>
  <rect x="85" y="262" width="75" height="14" fill="url(#cb)" rx="3"/>
  <text x="164" y="273" font-size="10" fill="#2b8c3f" font-weight="600">65-90 €</text>

  <text x="80" y="294" text-anchor="end" font-size="11" fill="#555">Alicante</text>
  <rect x="85" y="284" width="70" height="14" fill="url(#ba)" rx="3"/>
  <text x="159" y="295" font-size="10" fill="#006837" font-weight="600">65-85 €</text>

  <text x="80" y="316" text-anchor="end" font-size="11" fill="#555">Zaragoza</text>
  <rect x="85" y="306" width="70" height="14" fill="url(#ba)" rx="3"/>
  <text x="159" y="317" font-size="10" fill="#006837" font-weight="600">65-85 €</text>

  <text x="80" y="338" text-anchor="end" font-size="11" fill="#555">Murcia</text>
  <rect x="85" y="328" width="65" height="14" fill="url(#a)" rx="3"/>
  <text x="154" y="339" font-size="10" fill="#006837" font-weight="600">60-80 €</text>

  <text x="400" y="370" text-anchor="middle" font-size="10" fill="#9aab8a">Precios orientativos para vivienda tipo (97 m² construidos, 3 dormitorios, bloque 1960-1980)</text>
</svg>
