
<svg xmlns="http://www.w3.org/2000/svg" width="800" height="450" viewBox="0 0 800 450">
  <defs>
    <linearGradient id="bg4" x1="0" y1="0" x2="1" y2="1">
      <stop offset="0%" stop-color="#e0e7ff"/>
      <stop offset="100%" stop-color="#a5b4fc"/>
    </linearGradient>
    <linearGradient id="nodeGrad" x1="0" y1="0" x2="1" y2="1">
      <stop offset="0%" stop-color="#547c24"/>
      <stop offset="100%" stop-color="#43631d"/>
    </linearGradient>
  </defs>
  <rect width="800" height="450" fill="url(#bg4)"/>
  <!-- Central node -->
  <circle cx="400" cy="225" r="55" fill="url(#nodeGrad)"/>
  <text x="400" y="220" text-anchor="middle" fill="white" font-size="14" font-weight="bold" font-family="sans-serif">REGISTRO</text>
  <text x="400" y="238" text-anchor="middle" fill="white" font-size="11" font-family="sans-serif">NACIONAL</text>
  <!-- Connected nodes (CCAA) -->
  <circle cx="180" cy="100" r="25" fill="white" stroke="#547c24" stroke-width="2"/>
  <text x="180" y="105" text-anchor="middle" fill="#547c24" font-size="9" font-weight="bold" font-family="sans-serif">AND</text>
  <circle cx="620" cy="100" r="25" fill="white" stroke="#547c24" stroke-width="2"/>
  <text x="620" y="105" text-anchor="middle" fill="#547c24" font-size="9" font-weight="bold" font-family="sans-serif">CAT</text>
  <circle cx="100" cy="330" r="22" fill="white" stroke="#43631d" stroke-width="2"/>
  <text x="100" y="335" text-anchor="middle" fill="#43631d" font-size="8" font-weight="bold" font-family="sans-serif">MAD</text>
  <circle cx="700" cy="330" r="22" fill="white" stroke="#43631d" stroke-width="2"/>
  <text x="700" y="335" text-anchor="middle" fill="#43631d" font-size="8" font-weight="bold" font-family="sans-serif">VAL</text>
  <circle cx="280" cy="380" r="18" fill="white" stroke="#547c24" stroke-width="1.5"/>
  <text x="280" y="385" text-anchor="middle" fill="#547c24" font-size="7" font-weight="bold" font-family="sans-serif">AST</text>
  <circle cx="520" cy="380" r="18" fill="white" stroke="#547c24" stroke-width="1.5"/>
  <text x="520" y="385" text-anchor="middle" fill="#547c24" font-size="7" font-weight="bold" font-family="sans-serif">PV</text>
  <circle cx="300" cy="150" r="18" fill="white" stroke="#43631d" stroke-width="1.5"/>
  <text x="300" y="155" text-anchor="middle" fill="#43631d" font-size="7" font-weight="bold" font-family="sans-serif">GAL</text>
  <circle cx="500" cy="150" r="18" fill="white" stroke="#43631d" stroke-width="1.5"/>
  <text x="500" y="155" text-anchor="middle" fill="#43631d" font-size="7" font-weight="bold" font-family="sans-serif">CLM</text>
  <!-- Connection lines -->
  <line x1="200" y1="110" x2="350" y2="190" stroke="#547c24" stroke-width="1.5" opacity="0.4"/>
  <line x1="600" y1="110" x2="450" y2="190" stroke="#547c24" stroke-width="1.5" opacity="0.4"/>
  <line x1="120" y1="320" x2="350" y2="260" stroke="#43631d" stroke-width="1.5" opacity="0.4"/>
  <line x1="680" y1="320" x2="450" y2="260" stroke="#43631d" stroke-width="1.5" opacity="0.4"/>
  <line x1="295" y1="365" x2="370" y2="270" stroke="#547c24" stroke-width="1.5" opacity="0.3"/>
  <line x1="505" y1="365" x2="430" y2="270" stroke="#547c24" stroke-width="1.5" opacity="0.3"/>
  <line x1="315" y1="150" x2="365" y2="180" stroke="#43631d" stroke-width="1.5" opacity="0.3"/>
  <line x1="485" y1="150" x2="435" y2="180" stroke="#43631d" stroke-width="1.5" opacity="0.3"/>
</svg>